<svg xmlns="http://www.w3.org/2000/svg" xmlns:xlink="http://www.w3.org/1999/xlink" width="506" height="283" viewBox="0 0 506 283">
    <defs>
        <path id="b" d="M1 0c64.738 20 112.948 110 148.76 110 35.813 0 67.493-74 119.835-46s28.926 64 86.777 69 42.7 53 67.493 56c24.793 3 61.983 5 77.135 15"/>
        <filter id="a" width="103.6%" height="108.8%" x="-1.8%" y="-3.4%" filterUnits="objectBoundingBox">
            <feMorphology in="SourceAlpha" operator="dilate" radius="2" result="shadowSpreadOuter1"/>
            <feOffset dy="2" in="shadowSpreadOuter1" result="shadowOffsetOuter1"/>
            <feMorphology in="SourceAlpha" radius="2" result="shadowInner"/>
            <feOffset dy="2" in="shadowInner" result="shadowInner"/>
            <feComposite in="shadowOffsetOuter1" in2="shadowInner" operator="out" result="shadowOffsetOuter1"/>
            <feGaussianBlur in="shadowOffsetOuter1" result="shadowBlurOuter1" stdDeviation="2"/>
            <feColorMatrix in="shadowBlurOuter1" values="0 0 0 0 0.57254902 0 0 0 0 0 0 0 0 0 0.160784314 0 0 0 0.2 0"/>
        </filter>
        <linearGradient id="c" x1="81.869%" x2="81.869%" y1="0%" y2="100%">
            <stop offset="0%" stop-color="#A6003A"/>
            <stop offset="100%" stop-color="#FFC900" stop-opacity="0"/>
        </linearGradient>
        <rect id="e" width="55" height="30" x="277" y="71" rx="15"/>
        <filter id="d" width="125.5%" height="146.7%" x="-12.7%" y="-16.7%" filterUnits="objectBoundingBox">
            <feOffset dy="2" in="SourceAlpha" result="shadowOffsetOuter1"/>
            <feGaussianBlur in="shadowOffsetOuter1" result="shadowBlurOuter1" stdDeviation="2"/>
            <feColorMatrix in="shadowBlurOuter1" values="0 0 0 0 0.376470588 0 0 0 0 0.396078431 0 0 0 0 0.439215686 0 0 0 0.2 0"/>
        </filter>
    </defs>
    <g fill="none" fill-rule="evenodd">
        <g stroke-linecap="round" stroke-linejoin="round" transform="translate(-1 4)">
            <use fill="#000" filter="url(#a)" xlink:href="#b"/>
            <use stroke="#920029" stroke-width="4" xlink:href="#b"/>
        </g>
        <path fill="url(#c)" d="M1 0c64.738 20 112.948 110 148.76 110 35.813 0 67.493-74 119.835-46s28.926 64 86.777 69 42.7 53 67.493 56c24.793 3 61.983 5 77.135 15v76.143H.995L1 0z" opacity=".1" transform="translate(-1 4)"/>
        <g transform="translate(-1 4)">
            <use fill="#000" filter="url(#d)" xlink:href="#e"/>
            <use fill="#FFF" xlink:href="#e"/>
        </g>
        <text fill="#3D4351" font-family="Theinhardt-Medium, Theinhardt" font-size="14" font-weight="400" transform="translate(-1 4)">
            <tspan x="290" y="86">3.83</tspan>
        </text>
        <text fill="#383F49" font-family="Theinhardt-Medium, Theinhardt" font-size="12" font-weight="400" transform="translate(-1 4)">
            <tspan x="39" y="49">4.0</tspan>
        </text>
        <text fill="#383F49" font-family="Theinhardt-Medium, Theinhardt" font-size="12" font-weight="400" opacity=".2" transform="translate(-1 4)">
            <tspan x="39" y="119">3.5</tspan>
        </text>
        <text fill="#383F49" font-family="Theinhardt-Medium, Theinhardt" font-size="12" font-weight="400" opacity=".2" transform="translate(-1 4)">
            <tspan x="39" y="192">3.0</tspan>
        </text>
        <text fill="#3D4351" font-family="Theinhardt-Medium, Theinhardt" font-size="12" font-weight="400" opacity=".2" transform="translate(-1 4)">
            <tspan x="38" y="241">Jan</tspan>
        </text>
        <text fill="#3D4351" font-family="Theinhardt-Medium, Theinhardt" font-size="12" font-weight="400" opacity=".2" transform="translate(-1 4)">
            <tspan x="132" y="241">Feb</tspan>
        </text>
        <text fill="#3D4351" font-family="Theinhardt-Medium, Theinhardt" font-size="12" font-weight="400" opacity=".2" transform="translate(-1 4)">
            <tspan x="228" y="241">Mar</tspan>
        </text>
        <text fill="#3D4351" font-family="Theinhardt-Medium, Theinhardt" font-size="12" font-weight="400" transform="translate(-1 4)">
            <tspan x="323" y="241">Apr</tspan>
        </text>
        <text fill="#3D4351" font-family="Theinhardt-Medium, Theinhardt" font-size="12" font-weight="400" opacity=".2" transform="translate(-1 4)">
            <tspan x="418" y="241">May</tspan>
        </text>
    </g>
</svg>
