<svg xmlns="http://www.w3.org/2000/svg" xmlns:xlink="http://www.w3.org/1999/xlink" width="506" height="299" viewBox="0 0 506 299">
    <defs>
        <linearGradient id="a" x1="81.869%" x2="81.869%" y1="0%" y2="100%">
            <stop offset="0%" stop-color="#A6003A"/>
            <stop offset="100%" stop-color="#FFC900" stop-opacity="0"/>
        </linearGradient>
        <path id="c" d="M1 191c175.07 11 154.062-9 193.277-9 39.216 0 63.026 34 107.843-53 44.818-87 67.227-39 96.64-70C428.17 28 439.374 15 501 0"/>
        <filter id="b" width="103.6%" height="109.3%" x="-1.8%" y="-3.6%" filterUnits="objectBoundingBox">
            <feMorphology in="SourceAlpha" operator="dilate" radius="2" result="shadowSpreadOuter1"/>
            <feOffset dy="2" in="shadowSpreadOuter1" result="shadowOffsetOuter1"/>
            <feMorphology in="SourceAlpha" radius="2" result="shadowInner"/>
            <feOffset dy="2" in="shadowInner" result="shadowInner"/>
            <feComposite in="shadowOffsetOuter1" in2="shadowInner" operator="out" result="shadowOffsetOuter1"/>
            <feGaussianBlur in="shadowOffsetOuter1" result="shadowBlurOuter1" stdDeviation="2"/>
            <feColorMatrix in="shadowBlurOuter1" values="0 0 0 0 0.57254902 0 0 0 0 0 0 0 0 0 0.160784314 0 0 0 0.2 0"/>
        </filter>
        <rect id="e" width="55" height="30" x="311" y="58" rx="15"/>
        <filter id="d" width="125.5%" height="146.7%" x="-12.7%" y="-16.7%" filterUnits="objectBoundingBox">
            <feOffset dy="2" in="SourceAlpha" result="shadowOffsetOuter1"/>
            <feGaussianBlur in="shadowOffsetOuter1" result="shadowBlurOuter1" stdDeviation="2"/>
            <feColorMatrix in="shadowBlurOuter1" values="0 0 0 0 0.376470588 0 0 0 0 0.396078431 0 0 0 0 0.439215686 0 0 0 0.2 0"/>
        </filter>
    </defs>
    <g fill="none" fill-rule="evenodd">
        <path fill="url(#a)" d="M1 191c175.07 11 154.062-9 193.277-9 39.216 0 63.026 34 107.843-53 44.818-87 67.227-39 96.64-70C428.17 28 439.374 15 501 0v295.002H.984C.984 261 .989 226.333 1 191z" opacity=".1" transform="translate(-1 4)"/>
        <g stroke-linecap="round" stroke-linejoin="round" transform="translate(-1 4)">
            <use fill="#000" filter="url(#b)" xlink:href="#c"/>
            <use stroke="#920029" stroke-width="4" xlink:href="#c"/>
        </g>
        <text fill="#3D4351" font-family="Theinhardt-Medium, Theinhardt" font-size="12" font-weight="400" opacity=".2" transform="translate(-1 4)">
            <tspan x="38" y="260">Jan</tspan>
        </text>
        <text fill="#383F49" font-family="Theinhardt-Medium, Theinhardt" font-size="12" font-weight="400" opacity=".2" transform="translate(-1 4)">
            <tspan x="38" y="25">22.5</tspan>
        </text>
        <text fill="#383F49" font-family="Theinhardt-Medium, Theinhardt" font-size="12" font-weight="400" transform="translate(-1 4)">
            <tspan x="38" y="85">22.0</tspan>
        </text>
        <text fill="#383F49" font-family="Theinhardt-Medium, Theinhardt" font-size="12" font-weight="400" opacity=".2" transform="translate(-1 4)">
            <tspan x="38" y="145">21.5</tspan>
        </text>
        <text fill="#383F49" font-family="Theinhardt-Medium, Theinhardt" font-size="12" font-weight="400" opacity=".2" transform="translate(-1 4)">
            <tspan x="38" y="205">21.0</tspan>
        </text>
        <text fill="#3D4351" font-family="Theinhardt-Medium, Theinhardt" font-size="12" font-weight="400" opacity=".2" transform="translate(-1 4)">
            <tspan x="132" y="260">Feb</tspan>
        </text>
        <text fill="#3D4351" font-family="Theinhardt-Medium, Theinhardt" font-size="12" font-weight="400" opacity=".2" transform="translate(-1 4)">
            <tspan x="228" y="260">Mar</tspan>
        </text>
        <text fill="#3D4351" font-family="Theinhardt-Medium, Theinhardt" font-size="12" font-weight="400" transform="translate(-1 4)">
            <tspan x="323" y="260">Apr</tspan>
        </text>
        <text fill="#3D4351" font-family="Theinhardt-Medium, Theinhardt" font-size="12" font-weight="400" opacity=".2" transform="translate(-1 4)">
            <tspan x="418" y="260">May</tspan>
        </text>
        <g transform="translate(-1 4)">
            <use fill="#000" filter="url(#d)" xlink:href="#e"/>
            <use fill="#FFF" xlink:href="#e"/>
        </g>
        <text fill="#3D4351" font-family="Theinhardt-Medium, Theinhardt" font-size="14" font-weight="400" transform="translate(-1 4)">
            <tspan x="321" y="73">22.06</tspan>
        </text>
    </g>
</svg>
