<svg xmlns="http://www.w3.org/2000/svg" xmlns:xlink="http://www.w3.org/1999/xlink" width="486" height="291" viewBox="0 0 486 291">
    <defs>
        <linearGradient id="a" x1="81.869%" x2="81.869%" y1="0%" y2="100%">
            <stop offset="0%" stop-color="#A6003A"/>
            <stop offset="100%" stop-color="#FFC900" stop-opacity="0"/>
        </linearGradient>
        <path id="c" d="M1 216.534c43.09 0 40 24.466 71.818 16.77C104.636 225.61 123 130 247.793 111.123c44.464-6.726 23.505-81.454 117.521-81.454C405 29.669 410 .92 475 .92"/>
        <filter id="b" width="103.8%" height="107.7%" x="-1.9%" y="-3%" filterUnits="objectBoundingBox">
            <feMorphology in="SourceAlpha" operator="dilate" radius="2" result="shadowSpreadOuter1"/>
            <feOffset dy="2" in="shadowSpreadOuter1" result="shadowOffsetOuter1"/>
            <feMorphology in="SourceAlpha" radius="2" result="shadowInner"/>
            <feOffset dy="2" in="shadowInner" result="shadowInner"/>
            <feComposite in="shadowOffsetOuter1" in2="shadowInner" operator="out" result="shadowOffsetOuter1"/>
            <feGaussianBlur in="shadowOffsetOuter1" result="shadowBlurOuter1" stdDeviation="2"/>
            <feColorMatrix in="shadowBlurOuter1" values="0 0 0 0 0.57254902 0 0 0 0 0 0 0 0 0 0.160784314 0 0 0 0.2 0"/>
        </filter>
        <rect id="e" width="55" height="30" x="274" y="29" rx="15"/>
        <filter id="d" width="125.5%" height="146.7%" x="-12.7%" y="-16.7%" filterUnits="objectBoundingBox">
            <feOffset dy="2" in="SourceAlpha" result="shadowOffsetOuter1"/>
            <feGaussianBlur in="shadowOffsetOuter1" result="shadowBlurOuter1" stdDeviation="2"/>
            <feColorMatrix in="shadowBlurOuter1" values="0 0 0 0 0.376470588 0 0 0 0 0.396078431 0 0 0 0 0.439215686 0 0 0 0.2 0"/>
        </filter>
    </defs>
    <g fill="none" fill-rule="evenodd">
        <path fill="url(#a)" d="M1 216.534c43.09 0 40 24.466 71.818 16.77C104.636 225.61 123 130 247.793 111.123c44.464-6.726 23.505-81.454 117.521-81.454C405 29.669 410 .92 475 .92v287.087H.999L1 216.534z" opacity=".1" transform="translate(5 3)"/>
        <g stroke-linecap="round" stroke-linejoin="round" transform="translate(5 3)">
            <use fill="#000" filter="url(#b)" xlink:href="#c"/>
            <use stroke="#920029" stroke-width="4" xlink:href="#c"/>
        </g>
        <g transform="translate(5 3)">
            <use fill="#000" filter="url(#d)" xlink:href="#e"/>
            <use fill="#FFF" xlink:href="#e"/>
        </g>
        <text fill="#3D4351" font-family="Theinhardt-Medium, Theinhardt" font-size="14" font-weight="400" transform="translate(5 3)">
            <tspan x="287" y="44">30.4</tspan>
        </text>
        <text fill="#383F49" font-family="Theinhardt-Medium, Theinhardt" font-size="12" font-weight="400" opacity=".2" transform="translate(5 3)">
            <tspan x="42" y="18">32.5</tspan>
        </text>
        <text fill="#383F49" font-family="Theinhardt-Medium, Theinhardt" font-size="12" font-weight="400" opacity=".2" transform="translate(5 3)">
            <tspan x="42" y="95">27.5</tspan>
        </text>
        <text fill="#383F49" font-family="Theinhardt-Medium, Theinhardt" font-size="12" font-weight="400" transform="translate(5 3)">
            <tspan x="42" y="54">30.0</tspan>
        </text>
        <text fill="#383F49" font-family="Theinhardt-Medium, Theinhardt" font-size="12" font-weight="400" opacity=".2" transform="translate(5 3)">
            <tspan x="42" y="176">22.5</tspan>
        </text>
        <text fill="#383F49" font-family="Theinhardt-Medium, Theinhardt" font-size="12" font-weight="400" opacity=".2" transform="translate(5 3)">
            <tspan x="42" y="134">25.0</tspan>
        </text>
        <text fill="#383F49" font-family="Theinhardt-Medium, Theinhardt" font-size="12" font-weight="400" opacity=".2" transform="translate(5 3)">
            <tspan x="42" y="216">20.0</tspan>
        </text>
        <text fill="#3D4351" font-family="Theinhardt-Medium, Theinhardt" font-size="12" font-weight="400" opacity=".2" transform="translate(5 3)">
            <tspan x="42" y="251">Jan</tspan>
        </text>
        <text fill="#3D4351" font-family="Theinhardt-Medium, Theinhardt" font-size="12" font-weight="400" opacity=".2" transform="translate(5 3)">
            <tspan x="136" y="251">Feb</tspan>
        </text>
        <text fill="#3D4351" font-family="Theinhardt-Medium, Theinhardt" font-size="12" font-weight="400" opacity=".2" transform="translate(5 3)">
            <tspan x="232" y="251">Mar</tspan>
        </text>
        <text fill="#3D4351" font-family="Theinhardt-Medium, Theinhardt" font-size="12" font-weight="400" transform="translate(5 3)">
            <tspan x="327" y="251">Apr</tspan>
        </text>
        <text fill="#3D4351" font-family="Theinhardt-Medium, Theinhardt" font-size="12" font-weight="400" opacity=".2" transform="translate(5 3)">
            <tspan x="422" y="251">May</tspan>
        </text>
    </g>
</svg>
